<svg id="slj-logo" xmlns="http://www.w3.org/2000/svg" xmlns:xlink="http://www.w3.org/1999/xlink" width="99" height="299" viewBox="0 0 [width] [height]">
    <path fill-rule="evenodd" fill="rgb(184, 184, 184)" stroke="rgb(15, 15, 15)" stroke-width="2.25" d="M41.985,34.521 C44.336,37.353 49.664,41.842 57.969,47.985 C66.271,54.129 72.319,59.793 76.113,64.977 C79.904,70.161 81.801,75.633 81.801,81.393 C81.801,88.881 78.896,95.385 73.089,100.905 C67.279,106.426 60.536,109.185 52.857,109.185 C43.854,109.185 36.175,105.938 29.806,99.484 L29.806,174.932 L69.550,174.932 L69.550,184.868 L51.247,184.868 L51.247,245.722 C51.247,255.035 50.527,262.044 49.087,266.746 C47.647,271.451 44.911,275.148 40.879,277.834 C36.847,280.523 32.095,281.866 26.623,281.866 C17.790,281.866 9.055,278.219 0.415,270.922 L5.887,262.714 C10.686,265.979 14.622,268.355 17.695,269.842 C20.766,271.332 23.718,272.074 26.551,272.074 C29.382,272.074 31.974,271.210 34.327,269.482 C36.678,267.754 38.334,265.378 39.295,262.354 C40.254,259.330 40.735,253.642 40.735,245.290 L40.735,184.868 L19.294,184.868 L19.294,81.476 L29.806,81.476 L29.806,82.204 L29.961,82.113 C36.103,93.441 43.256,99.105 51.417,99.105 C56.695,99.105 61.209,97.426 64.953,94.065 C68.697,90.705 70.569,86.529 70.569,81.537 C70.569,77.601 68.985,73.617 65.817,69.585 C62.649,65.553 57.393,60.778 50.049,55.257 C42.705,49.737 37.759,45.609 35.217,42.873 C32.672,40.137 30.800,37.209 29.601,34.089 C28.399,30.970 27.801,27.825 27.801,24.657 C27.801,17.938 30.177,12.250 34.929,7.593 C39.681,2.937 45.657,0.609 52.857,0.609 C58.520,0.609 63.463,2.026 67.689,4.857 C71.912,7.689 75.991,11.890 79.929,17.457 L71.577,23.937 C68.888,20.289 66.105,17.265 63.225,14.865 C60.345,12.466 56.817,11.265 52.641,11.265 C48.465,11.265 45.056,12.513 42.417,15.009 C39.775,17.506 38.457,20.674 38.457,24.513 C38.457,28.353 39.631,31.690 41.985,34.521 Z"/>
</svg>